<?xml version="1.0" encoding="UTF-8" standalone="no"?>
<!-- Created with Inkscape (http://www.inkscape.org/) -->

<svg
   xmlns:dc="http://purl.org/dc/elements/1.1/"
   xmlns:cc="http://creativecommons.org/ns#"
   xmlns:rdf="http://www.w3.org/1999/02/22-rdf-syntax-ns#"
   xmlns:svg="http://www.w3.org/2000/svg"
   xmlns="http://www.w3.org/2000/svg"
   xmlns:sodipodi="http://sodipodi.sourceforge.net/DTD/sodipodi-0.dtd"
   xmlns:inkscape="http://www.inkscape.org/namespaces/inkscape"
   width="64px"
   height="64px"
   id="svg3866"
   version="1.1"
   inkscape:version="0.48.4 r9939"
   sodipodi:docname="Mirror.svg">
  <defs
     id="defs3868" />
  <sodipodi:namedview
     id="base"
     pagecolor="#ffffff"
     bordercolor="#666666"
     borderopacity="1.0"
     inkscape:pageopacity="0.0"
     inkscape:pageshadow="2"
     inkscape:zoom="8"
     inkscape:cx="55.87355"
     inkscape:cy="43.768607"
     inkscape:current-layer="layer1"
     showgrid="true"
     inkscape:document-units="px"
     inkscape:grid-bbox="true"
     inkscape:window-width="1920"
     inkscape:window-height="1017"
     inkscape:window-x="-4"
     inkscape:window-y="-4"
     inkscape:window-maximized="1" />
  <metadata
     id="metadata3871">
    <rdf:RDF>
      <cc:Work
         rdf:about="">
        <dc:format>image/svg+xml</dc:format>
        <dc:type
           rdf:resource="http://purl.org/dc/dcmitype/StillImage" />
        <dc:title />
      </cc:Work>
    </rdf:RDF>
  </metadata>
  <g
     id="layer1"
     inkscape:label="Layer 1"
     inkscape:groupmode="layer">
    <path
       style="fill:#bccccd;stroke:none"
       inkscape:connector-curvature="0"
       d="m 45.71399,1.8285714 0,-1.8285714 18.28574,0 0,1.8285714 -18.28574,0 M -3.5548e-4,45.714285 l 0,-1.82857 9.14286918,0 -0.9142866,0.914286 0.9142866,0.914284 -9.14286918,0 m 15.54287748,2.788573 -1.782859,1.828571 -0.960002,-0.96 0.914287,-0.914286 0.914287,0.914286 0.914287,-0.868571"
       id="path338" />
    <path
       style="fill:#acc0c1;stroke:none"
       inkscape:connector-curvature="0"
       d="M 15.542522,48.502858 50.285426,13.714286 49.371138,12.8 45.71399,9.142857 9.1425137,45.714285 l 3.6571473,3.657144 0.960002,0.96 1.782859,-1.828571 M 45.71399,1.8285714 l 18.285739,0 0,16.4571436 -9.142869,0 L 51.199713,14.628571 14.628235,51.2 l 3.657148,3.657143 0,9.142857 -18.28573848,0 0,-18.285715 9.14286918,0 L 8.2282271,44.800001 9.1425137,43.885715 45.71399,7.3142856 l 0,-5.4857142 m 10.880015,1.7371429 -0.09143,0.091429 q -0.73143,0.7314285 -0.73143,1.8285714 0,1.1428571 0.822858,1.9657143 0.777144,0.7771428 1.920003,0.7771428 1.097145,0 1.828573,-0.6400001 L 60.479723,7.451429 q 0.777144,-0.8228572 0.777144,-1.9657143 0,-1.1428572 -0.777144,-1.92 -0.777144,-0.8228572 -1.965717,-0.8228572 -1.142859,0 -1.920003,0.8228572 M 7.31394,60.617143 7.4510831,60.48 q 0.7771439,-0.822857 0.7771439,-1.965714 0,-1.142857 -0.7771439,-1.92 -0.777144,-0.822857 -1.965717,-0.822857 -1.1428587,0 -1.9200025,0.822857 l -0.091429,0.09143 q -0.7314295,0.731429 -0.7314295,1.828572 0,1.142857 0.8228583,1.965714 0.7771437,0.777143 1.9200025,0.777143 1.0971444,0 1.8285739,-0.64"
       id="path340" />
    <path
       style="fill:#a1b1b1;stroke:none"
       inkscape:connector-curvature="0"
       d="m 7.31394,60.617143 q -0.7314295,0.64 -1.8285739,0.64 -1.1428587,0 -1.9200025,-0.777143 -0.8228582,-0.822857 -0.8228582,-1.965714 0,-1.097143 0.7314296,-1.828572 l 0.091429,-0.09143 q 0.7771438,-0.822857 1.9200025,-0.822857 1.188573,0 1.965717,0.822857 0.7771439,0.777143 0.7771439,1.92 0,1.142857 -0.7771439,1.965714 L 7.3139401,60.617143 M 54.85686,18.285715 18.285383,54.857143 14.628235,51.2 51.199713,14.628571 54.85686,18.285715 M 56.594005,3.5657143 q 0.777144,-0.8228572 1.920003,-0.8228572 1.188574,0 1.965717,0.8228572 0.777144,0.7771428 0.777144,1.92 0,1.1428571 -0.777144,1.9657143 l -0.137142,0.1371427 q -0.73143,0.6400001 -1.828575,0.6400001 -1.142859,0 -1.920003,-0.7771428 -0.822858,-0.8228572 -0.822858,-1.9657143 0,-1.0971429 0.73143,-1.8285714 l 0.09143,-0.091429 M 12.799661,49.371429 9.1425137,45.714285 45.713992,9.142857 49.371138,12.8 13.713948,48.457143 12.799661,49.371429"
       id="path342" />
  </g>
</svg>
