<?xml version="1.0" encoding="UTF-8" standalone="no"?>
<!-- Created with Inkscape (http://www.inkscape.org/) -->

<svg
   xmlns:dc="http://purl.org/dc/elements/1.1/"
   xmlns:cc="http://creativecommons.org/ns#"
   xmlns:rdf="http://www.w3.org/1999/02/22-rdf-syntax-ns#"
   xmlns:svg="http://www.w3.org/2000/svg"
   xmlns="http://www.w3.org/2000/svg"
   xmlns:sodipodi="http://sodipodi.sourceforge.net/DTD/sodipodi-0.dtd"
   xmlns:inkscape="http://www.inkscape.org/namespaces/inkscape"
   width="64px"
   height="64px"
   id="svg3847"
   version="1.1"
   inkscape:version="0.48.4 r9939"
   sodipodi:docname="BackMirror.svg">
  <defs
     id="defs3849" />
  <sodipodi:namedview
     id="base"
     pagecolor="#ffffff"
     bordercolor="#666666"
     borderopacity="1.0"
     inkscape:pageopacity="0.0"
     inkscape:pageshadow="2"
     inkscape:zoom="5.6568543"
     inkscape:cx="66.436035"
     inkscape:cy="50.726128"
     inkscape:current-layer="layer1"
     showgrid="true"
     inkscape:document-units="px"
     inkscape:grid-bbox="true"
     inkscape:window-width="1920"
     inkscape:window-height="1017"
     inkscape:window-x="-4"
     inkscape:window-y="-4"
     inkscape:window-maximized="1" />
  <metadata
     id="metadata3852">
    <rdf:RDF>
      <cc:Work
         rdf:about="">
        <dc:format>image/svg+xml</dc:format>
        <dc:type
           rdf:resource="http://purl.org/dc/dcmitype/StillImage" />
        <dc:title />
      </cc:Work>
    </rdf:RDF>
  </metadata>
  <g
     id="layer1"
     inkscape:label="Layer 1"
     inkscape:groupmode="layer">
    <path
       style="fill:#a1b1b1;stroke:none"
       inkscape:connector-curvature="0"
       d="M 45.714286,54.857143 9.1428568,18.285715 12.8,14.628572 49.371429,51.199999 45.714286,54.857143 M 14.62857,12.800001 18.285713,9.1428578 54.857143,45.714286 51.199999,49.371429 50.285714,48.457142 14.62857,12.800001 M 5.4857144,2.7428569 q 1.1428571,0 1.92,0.8228571 l 0.091429,0.091429 q 0.7314284,0.7314287 0.7314284,1.8285715 0,1.1428571 -0.822857,1.9657142 -0.7771429,0.7771432 -1.92,0.7771432 -1.097143,0 -1.8285715,-0.6400005 L 3.52,7.4514284 Q 2.742857,6.6285713 2.742857,5.4857142 2.742857,4.3428571 3.52,3.565714 4.297143,2.7428569 5.4857144,2.7428569 M 61.257143,58.514285 q 0,1.142857 -0.822857,1.965714 -0.777142,0.777143 -1.92,0.777143 -1.097143,0 -1.828572,-0.639999 L 56.54857,60.479999 q -0.777141,-0.822857 -0.777141,-1.965714 0,-1.142857 0.777141,-1.92 0.777144,-0.822857 1.965716,-0.822857 1.142858,0 1.92,0.822857 l 0.09143,0.09142 q 0.731429,0.731428 0.731429,1.828571"
       id="path344" />
    <path
       style="fill:#acc0c1;stroke:none"
       inkscape:connector-curvature="0"
       d="m 61.257143,58.514285 q 0,-1.097143 -0.731429,-1.828571 l -0.09143,-0.09142 q -0.777142,-0.822857 -1.92,-0.822857 -1.188572,0 -1.965716,0.822857 -0.777141,0.777143 -0.777141,1.92 0,1.142857 0.777141,1.965714 l 0.137144,0.137144 q 0.731429,0.639999 1.828572,0.639999 1.142858,0 1.92,-0.777143 0.822857,-0.822857 0.822857,-1.965714 M 18.285713,1.8285714 l 0,5.485714 L 54.857143,43.885715 55.771429,44.8 54.857143,45.714286 64,45.714286 64,64 l -18.285714,0 0,-9.142857 3.657143,-3.657144 L 12.8,14.628572 9.1428568,18.285715 0,18.285715 0,1.8285714 l 18.285713,0 M 5.4857144,2.7428569 Q 4.297143,2.7428569 3.52,3.565714 2.742857,4.3428571 2.742857,5.4857142 q 0,1.1428571 0.777143,1.9657142 l 0.1371429,0.1371427 q 0.7314285,0.6400005 1.8285715,0.6400005 1.1428571,0 1.92,-0.7771432 0.822857,-0.8228571 0.822857,-1.9657142 0,-1.0971428 -0.7314284,-1.8285715 L 7.405714,3.5657139 Q 6.6285711,2.7428568 5.485714,2.7428568 M 51.199999,49.371429 54.857143,45.714286 18.285713,9.1428578 14.62857,12.800001 l -0.914284,0.914286 34.742856,34.78857 1.782857,1.828572 0.96,-0.96"
       id="path346" />
    <path
       style="fill:#bccccd;stroke:none"
       inkscape:connector-curvature="0"
       d="m 51.199999,49.371429 -0.96,0.96 -1.782857,-1.828572 0.914287,0.868572 0.914285,-0.914287 0.914285,0.914287 M 0,1.8285714 0,0 l 18.285713,0 0,1.8285714 -18.285713,0 m 54.857143,42.0571436 9.142857,0 0,1.828571 -9.142857,0 L 55.771429,44.8 54.857143,43.885715"
       id="path348" />
  </g>
</svg>
