<?xml version="1.0" encoding="UTF-8" standalone="no"?>
<!-- Created with Inkscape (http://www.inkscape.org/) -->

<svg
   xmlns:dc="http://purl.org/dc/elements/1.1/"
   xmlns:cc="http://creativecommons.org/ns#"
   xmlns:rdf="http://www.w3.org/1999/02/22-rdf-syntax-ns#"
   xmlns:svg="http://www.w3.org/2000/svg"
   xmlns="http://www.w3.org/2000/svg"
   xmlns:sodipodi="http://sodipodi.sourceforge.net/DTD/sodipodi-0.dtd"
   xmlns:inkscape="http://www.inkscape.org/namespaces/inkscape"
   width="64px"
   height="64px"
   id="svg4140"
   version="1.1"
   inkscape:version="0.48.4 r9939"
   sodipodi:docname="New document 18">
  <defs
     id="defs4142" />
  <sodipodi:namedview
     id="base"
     pagecolor="#ffffff"
     bordercolor="#666666"
     borderopacity="1.0"
     inkscape:pageopacity="0.0"
     inkscape:pageshadow="2"
     inkscape:zoom="5.5"
     inkscape:cx="32"
     inkscape:cy="32"
     inkscape:current-layer="layer1"
     showgrid="true"
     inkscape:document-units="px"
     inkscape:grid-bbox="true"
     inkscape:window-width="1920"
     inkscape:window-height="1017"
     inkscape:window-x="-4"
     inkscape:window-y="-4"
     inkscape:window-maximized="1" />
  <metadata
     id="metadata4145">
    <rdf:RDF>
      <cc:Work
         rdf:about="">
        <dc:format>image/svg+xml</dc:format>
        <dc:type
           rdf:resource="http://purl.org/dc/dcmitype/StillImage" />
        <dc:title></dc:title>
      </cc:Work>
    </rdf:RDF>
  </metadata>
  <g
     id="layer1"
     inkscape:label="Layer 1"
     inkscape:groupmode="layer">
    <path
       style="fill:#acc0c1;stroke:none"
       inkscape:connector-curvature="0"
       d="m 64,10.24 0,45.394286 q -0.09143,3.382857 -1.554286,5.44 l -1.142857,1.188571 Q 59.245714,63.908571 55.68,64 L 8.3657143,64 Q 4.7542857,63.908571 2.6971429,62.262857 L 1.6,61.12 Q 0.09142857,59.062857 0,55.634286 L 0,10.102857 0.04571429,9.5085714 Q 0.32,5.5771429 2.6514286,3.6571429 4.5257143,2.1028571 7.8171429,1.8742857 l 0.7314285,-0.045714 46.8571426,0 0.685715,0.045714 Q 59.428571,2.0571429 61.394286,3.6571429 63.862857,5.7142857 64,10.24 M 10.285714,6.4 10.194286,6.3085714 Q 9.4171429,5.4857143 8.2285714,5.4857143 q -1.1428571,0 -1.92,0.8228571 -0.8228571,0.7771429 -0.8228571,1.92 0,1.1428572 0.8228571,1.9657146 L 6.4,10.285714 q 0.7314286,0.685715 1.8285714,0.685715 1.1885715,0 1.9657146,-0.777143 0.777143,-0.8228574 0.777143,-1.9657146 0,-1.0971428 -0.685715,-1.8285714 M 51.474286,3.6571429 3.2,51.931429 3.2,60.8 l 16.64,0 40.96,-40.96 0,-16.1828571 -9.325714,0 m -16.64,0 L 3.2,35.291429 l 0,9.92 41.554286,-41.5542861 -9.92,0 M 57.6,53.714286 q -0.731429,-0.685715 -1.828571,-0.685715 -1.142858,0 -1.92,0.822858 -0.822858,0.777142 -0.822858,1.92 0,1.051428 0.685715,1.828571 l 0.137143,0.137143 q 0.777142,0.777143 1.92,0.777143 1.188571,0 1.965714,-0.777143 0.777143,-0.822857 0.777143,-1.965714 0,-1.142858 -0.777143,-1.92 L 57.6,53.714286"
       id="path124" />
    <path
       style="fill:#bccccd;stroke:none"
       inkscape:connector-curvature="0"
       d="M 0,10.102857 0,8.5485714 0.04571429,7.68 Q 0.32,3.7485714 2.6514286,1.8285714 4.5257143,0.27428571 7.8171429,0.04571429 L 8.5485714,0 55.405714,0 56.091429,0.04571429 Q 59.428571,0.22857143 61.394286,1.8285714 63.862857,3.8857143 64,8.4114286 L 64,10.24 q -0.137143,-4.5257143 -2.605714,-6.5828571 -1.965715,-1.6 -5.302857,-1.7828572 l -0.685715,-0.045714 -46.8571426,0 -0.7314285,0.045714 Q 4.5257143,2.1028571 2.6514286,3.6571429 0.32,5.5771429 0.04571429,9.5085714 L 0,10.102857"
       id="path126" />
    <path
       style="fill:#a1b1b1;stroke:none"
       inkscape:connector-curvature="0"
       d="m 10.285714,6.4 q 0.685715,0.7314286 0.685715,1.8285714 0,1.1428572 -0.777143,1.9657146 -0.7771431,0.777143 -1.9657146,0.777143 -1.0971428,0 -1.8285714,-0.685715 l -0.091429,-0.09143 Q 5.4857143,9.3714286 5.4857143,8.2285714 q 0,-1.1428571 0.8228571,-1.92 0.7771429,-0.8228571 1.92,-0.8228571 1.1885715,0 1.9657146,0.8228571 L 10.285714,6.4 m 47.451429,-0.091429 q 0.777143,0.7771429 0.777143,1.92 0,1.1428572 -0.777143,1.9657146 L 57.6,10.331429 q -0.731429,0.64 -1.828571,0.64 -1.142858,0 -1.92,-0.777143 Q 53.028571,9.3714286 53.028571,8.2285714 53.028571,7.1314286 53.76,6.4 l 0.09143,-0.091429 q 0.777141,-0.8228571 1.919999,-0.8228571 1.188571,0 1.965714,0.8228571 M 57.6,53.714286 l 0.137143,0.137143 q 0.777143,0.777142 0.777143,1.92 0,1.142857 -0.777143,1.965714 -0.777143,0.777143 -1.965714,0.777143 -1.142858,0 -1.92,-0.777143 L 53.714286,57.6 q -0.685715,-0.777143 -0.685715,-1.828571 0,-1.142858 0.822858,-1.92 0.777142,-0.822858 1.92,-0.822858 1.097142,0 1.828571,0.685715 M 6.4,53.76 q 0.7314286,-0.731429 1.8285714,-0.731429 1.1885715,0 1.9657146,0.822858 0.777143,0.777142 0.777143,1.92 0,1.051428 -0.64,1.828571 l -0.137143,0.137143 q -0.7771431,0.777143 -1.9657146,0.777143 -1.1428571,0 -1.92,-0.777143 -0.8228571,-0.822857 -0.8228571,-1.965714 0,-1.142858 0.8228571,-1.92 L 6.4,53.76"
       id="path128" />
    <path
       style="fill:#b4c6c7;stroke:none"
       inkscape:connector-curvature="0"
       d="m 6.4,53.76 -0.091429,0.09143 q -0.8228571,0.777142 -0.8228571,1.92 0,1.142857 0.8228571,1.965714 0.7771429,0.777143 1.92,0.777143 1.1885715,0 1.965715,-0.777143 L 10.331429,57.6 q 0.64,-0.777143 0.64,-1.828571 0,-1.142858 -0.777143,-1.92 Q 9.4171429,53.028571 8.2285714,53.028571 7.1314286,53.028571 6.4,53.76 M 57.737143,6.3085714 Q 56.96,5.4857143 55.771429,5.4857143 q -1.142858,0 -1.92,0.8228571 L 53.76,6.4 q -0.731429,0.7314286 -0.731429,1.8285714 0,1.1428572 0.822858,1.9657146 0.777142,0.777143 1.92,0.777143 1.097142,0 1.828571,-0.64 l 0.137143,-0.137143 q 0.777143,-0.8228574 0.777143,-1.9657146 0,-1.1428571 -0.777143,-1.92 m -22.902857,-2.6514285 9.92,0 L 3.2,45.211429 l 0,-9.92 31.634286,-31.6342861 m 16.64,0 9.325714,0 L 60.8,19.84 19.84,60.8 3.2,60.8 3.2,51.931429 51.474286,3.6571429"
       id="path130" />
  </g>
</svg>
