<?xml version="1.0" encoding="UTF-8" standalone="no"?>
<!-- Created with Inkscape (http://www.inkscape.org/) -->

<svg
   xmlns:dc="http://purl.org/dc/elements/1.1/"
   xmlns:cc="http://creativecommons.org/ns#"
   xmlns:rdf="http://www.w3.org/1999/02/22-rdf-syntax-ns#"
   xmlns:svg="http://www.w3.org/2000/svg"
   xmlns="http://www.w3.org/2000/svg"
   xmlns:sodipodi="http://sodipodi.sourceforge.net/DTD/sodipodi-0.dtd"
   xmlns:inkscape="http://www.inkscape.org/namespaces/inkscape"
   width="64px"
   height="64px"
   id="svg4093"
   version="1.1"
   inkscape:version="0.48.4 r9939"
   sodipodi:docname="New document 15">
  <defs
     id="defs4095" />
  <sodipodi:namedview
     id="base"
     pagecolor="#ffffff"
     bordercolor="#666666"
     borderopacity="1.0"
     inkscape:pageopacity="0.0"
     inkscape:pageshadow="2"
     inkscape:zoom="5.5"
     inkscape:cx="32"
     inkscape:cy="32"
     inkscape:current-layer="layer1"
     showgrid="true"
     inkscape:document-units="px"
     inkscape:grid-bbox="true"
     inkscape:window-width="1920"
     inkscape:window-height="1017"
     inkscape:window-x="-4"
     inkscape:window-y="-4"
     inkscape:window-maximized="1" />
  <metadata
     id="metadata4098">
    <rdf:RDF>
      <cc:Work
         rdf:about="">
        <dc:format>image/svg+xml</dc:format>
        <dc:type
           rdf:resource="http://purl.org/dc/dcmitype/StillImage" />
        <dc:title></dc:title>
      </cc:Work>
    </rdf:RDF>
  </metadata>
  <g
     id="layer1"
     inkscape:label="Layer 1"
     inkscape:groupmode="layer">
    <path
       style="fill:#acc0c1;stroke:none"
       inkscape:connector-curvature="0"
       d="m 46.458958,1.8272661 0,4.5681656 -1.827266,0 -25.536046,0 -1.827266,0 0,-4.5681656 29.190578,0 m 7.354746,19.9172019 0,27.820129 q -0.137044,4.339757 -4.568165,4.339757 l -33.804425,0 -0.867952,0 q -4.431121,0 -4.568166,-4.339757 l 0,-27.820129 q 0.137045,-4.339757 4.568166,-4.339757 l 34.672377,0 q 4.431121,0 4.568165,4.339757 m 0.867952,40.199857 0,2.055675 L 9,64 9,61.944325 q 0.045682,-1.918629 0.9593148,-2.969307 1.1420412,-1.37045 3.6088512,-1.37045 l 36.545324,0 q 4.431121,0 4.568166,4.339757 m -9.36474,-18.044254 5.573163,-5.573162 0,-19.551748 -5.938616,0 -25.444682,25.490364 -0.730907,-0.27409 -0.182726,-0.04568 -0.04568,0 -0.182727,-0.04568 -0.09136,0 -0.04568,0 -0.09136,0 q -1.187723,0 -1.964311,0.82227 l -0.04568,0.04568 -0.04568,0.04568 q -0.502498,0.54818 -0.639543,1.279087 l -0.04568,0.54818 0.04568,0.54818 0.319771,0.822269 -2.740899,2.695218 25.490364,0 4.294075,-4.294076 0,0.228409 q 0,1.142041 0.776589,1.964311 0.776588,0.776588 1.964311,0.776588 1.09636,0 1.827266,-0.685225 l 0.09136,-0.09136 q 0.82227,-0.82227 0.82227,-1.964311 0,-1.142042 -0.82227,-1.91863 -0.776588,-0.82227 -1.918629,-0.82227 l -0.228409,0 M 28.32334,18.775161 12.974304,34.124197 l 0,9.912919 25.261956,-25.261955 -9.91292,0 m -12.927908,5.938615 q 0,1.142041 0.776588,1.964311 0.776588,0.776588 1.964311,0.776588 1.09636,0 1.827266,-0.685225 l 0.09136,-0.09136 q 0.82227,-0.82227 0.82227,-1.964311 0,-1.142042 -0.82227,-1.91863 -0.776588,-0.822269 -1.91863,-0.822269 -1.187723,0 -1.964311,0.822269 l -0.09136,0.09136 q -0.685225,0.730906 -0.685225,1.827266"
       id="path590" />
    <path
       style="fill:#bccccd;stroke:none"
       inkscape:connector-curvature="0"
       d="m 17.26838,1.8272661 0,-1.8272661 29.190578,0 0,1.8272661 -29.190578,0 m 27.363312,13.7501789 4.613847,0 q 4.568165,0 4.568165,4.568165 l 0,1.598858 Q 53.67666,17.404711 49.245539,17.404711 l -34.672377,0 q -4.431121,0 -4.568166,4.339757 l 0,-1.598858 q 0,-4.568165 4.568166,-4.568165 l 4.522484,0 25.536046,0 m 4.613847,40.199857 0.867951,0 q 4.568166,0 4.568166,4.568166 l 0,1.598857 Q 54.544611,57.604568 50.11349,57.604568 l -36.545324,0 q -2.46681,0 -3.6088512,1.37045 Q 9.0456817,60.025696 9,61.944325 l 0,-1.598857 q 0,-2.101357 0.9593148,-3.197716 1.1420412,-1.37045 3.6088512,-1.37045 l 1.872948,0 33.804425,0"
       id="path592" />
    <path
       style="fill:#91a1a1;stroke:none"
       inkscape:connector-curvature="0"
       d="m 44.631692,6.3954317 0,9.1820133 -25.536046,0 0,-9.1820133 25.536046,0"
       id="path594" />
    <path
       style="fill:#a1b1b1;stroke:none"
       inkscape:connector-curvature="0"
       d="m 49.245539,53.904354 0,1.872948 -33.804425,0 0,-1.872948 33.804425,0 M 43.48965,22.88651 43.58101,22.79515 q 0.776588,-0.822269 1.964311,-0.822269 1.142041,0 1.918629,0.822269 0.82227,0.776588 0.82227,1.91863 0,1.142041 -0.82227,1.964311 l -0.09136,0.09136 q -0.730906,0.685225 -1.827266,0.685225 -1.187723,0 -1.964311,-0.776588 -0.776589,-0.82227 -0.776589,-1.964311 0,-1.09636 0.685225,-1.827266 m -23.982869,21.379015 0.54818,0.456816 q 0.82227,0.776588 0.82227,1.91863 0,1.142041 -0.82227,1.964311 l -0.09136,0.09136 q -0.730906,0.685225 -1.827266,0.685225 -1.187723,0 -1.964311,-0.776588 l -0.411138,-0.59386 -0.319771,-0.822269 -0.04568,-0.54818 0.04568,-0.54818 q 0.137045,-0.730907 0.639543,-1.279087 l 0.04568,-0.04568 0.04568,-0.04568 q 0.776588,-0.82227 1.964311,-0.82227 l 0.09136,0 0.04568,0 0.09136,0 0.182726,0.04568 0.04568,0 0.182727,0.04568 0.730907,0.27409 m 23.297644,2.147037 q 0.09136,-0.959314 0.685225,-1.598858 l 0.09136,-0.09136 q 0.685224,-0.730906 1.735902,-0.82227 l 0.228409,0 q 1.142041,0 1.918629,0.82227 0.82227,0.776588 0.82227,1.91863 0,1.142041 -0.82227,1.964311 l -0.09136,0.09136 q -0.730906,0.685225 -1.827266,0.685225 -1.187723,0 -1.964311,-0.776588 -0.776589,-0.82227 -0.776589,-1.964311 l 0,-0.228409 M 15.395432,24.713776 q 0,-1.09636 0.685225,-1.827266 l 0.09136,-0.09136 q 0.776588,-0.822269 1.964311,-0.822269 1.142042,0 1.91863,0.822269 0.82227,0.776588 0.82227,1.91863 0,1.142041 -0.82227,1.964311 l -0.09136,0.09136 q -0.730906,0.685225 -1.827266,0.685225 -1.187723,0 -1.964311,-0.776588 -0.776588,-0.82227 -0.776588,-1.964311"
       id="path596" />
    <path
       style="fill:#b4c6c7;stroke:none"
       inkscape:connector-curvature="0"
       d="m 43.48965,22.88651 q -0.685225,0.730906 -0.685225,1.827266 0,1.142041 0.776589,1.964311 0.776588,0.776588 1.964311,0.776588 1.09636,0 1.827266,-0.685225 l 0.09136,-0.09136 q 0.82227,-0.82227 0.82227,-1.964311 0,-1.142042 -0.82227,-1.91863 -0.776588,-0.822269 -1.918629,-0.822269 -1.187723,0 -1.964311,0.822269 l -0.09136,0.09136 M 19.506782,44.265524 44.951464,18.77516 l 5.938616,0 0,19.551748 -5.573163,5.573162 q -1.050678,0.09136 -1.735902,0.82227 l -0.09136,0.09136 q -0.593861,0.639544 -0.685225,1.598858 l -4.294075,4.294076 -25.490364,0 2.740899,-2.695218 0.411135,0.593862 q 0.776588,0.776588 1.964311,0.776588 1.09636,0 1.827266,-0.685225 l 0.09136,-0.09136 q 0.82227,-0.82227 0.82227,-1.964311 0,-1.142042 -0.82227,-1.91863 l -0.54818,-0.456816 m 8.816559,-25.490364 9.91292,0 -25.261956,25.261955 0,-9.912919 15.349035,-15.349035"
       id="path598" />
  </g>
</svg>
