<?xml version="1.0" encoding="UTF-8" standalone="no"?>
<!-- Created with Inkscape (http://www.inkscape.org/) -->

<svg
   xmlns:dc="http://purl.org/dc/elements/1.1/"
   xmlns:cc="http://creativecommons.org/ns#"
   xmlns:rdf="http://www.w3.org/1999/02/22-rdf-syntax-ns#"
   xmlns:svg="http://www.w3.org/2000/svg"
   xmlns="http://www.w3.org/2000/svg"
   xmlns:sodipodi="http://sodipodi.sourceforge.net/DTD/sodipodi-0.dtd"
   xmlns:inkscape="http://www.inkscape.org/namespaces/inkscape"
   width="64px"
   height="64px"
   id="svg4053"
   version="1.1"
   inkscape:version="0.48.4 r9939"
   sodipodi:docname="drawing.svg">
  <defs
     id="defs4055" />
  <sodipodi:namedview
     id="base"
     pagecolor="#ffffff"
     bordercolor="#666666"
     borderopacity="1.0"
     inkscape:pageopacity="0.0"
     inkscape:pageshadow="2"
     inkscape:zoom="5.5"
     inkscape:cx="32"
     inkscape:cy="32"
     inkscape:current-layer="layer1"
     showgrid="true"
     inkscape:document-units="px"
     inkscape:grid-bbox="true"
     inkscape:window-width="1920"
     inkscape:window-height="1017"
     inkscape:window-x="-4"
     inkscape:window-y="-4"
     inkscape:window-maximized="1" />
  <metadata
     id="metadata4058">
    <rdf:RDF>
      <cc:Work
         rdf:about="">
        <dc:format>image/svg+xml</dc:format>
        <dc:type
           rdf:resource="http://purl.org/dc/dcmitype/StillImage" />
        <dc:title></dc:title>
      </cc:Work>
    </rdf:RDF>
  </metadata>
  <g
     id="layer1"
     inkscape:label="Layer 1"
     inkscape:groupmode="layer">
    <path
       style="fill:#b4c6c7;stroke:none"
       inkscape:connector-curvature="0"
       d="m 2.7885714,43.611429 0,-9.92 18.3771426,-18.377143 9.92,0 -28.2971426,28.297143 m 33.7828576,-27.017143 1.234285,-1.28 2.925715,0 0,22.582857 -6.308572,6.308571 q -0.365714,0.182857 -0.64,0.502857 -0.32,0.274286 -0.502857,0.64 l -4.937143,4.937143 -25.5085713,0 2.8342857,-2.788571 q 0.1828572,0.594286 0.6857143,1.097143 l 0.091429,0.09143 q 0.7314286,0.685715 1.8285714,0.685715 1.1885714,0 1.9657143,-0.777143 0.777143,-0.822857 0.777143,-1.965715 0,-1.097142 -0.685714,-1.828571 L 10.24,44.708571 Q 9.7371429,44.205714 9.1428571,44.022857 L 33.097143,20.068571 q 0.182857,0.594286 0.685714,1.097143 l 0.09143,0.09143 q 0.731428,0.685714 1.828571,0.685714 1.188572,0 1.965714,-0.777143 0.777143,-0.822857 0.777143,-1.965714 0,-1.097143 -0.685714,-1.828571 L 37.668571,17.28 q -0.502857,-0.502857 -1.097142,-0.685714"
       id="path600" />
    <path
       style="fill:#acc0c1;stroke:none"
       inkscape:connector-curvature="0"
       d="m 36.571429,16.594286 -0.868572,-0.137143 q -1.142857,0 -1.92,0.822857 Q 32.96,18.057143 32.96,19.2 l 0,0.09143 0.137143,0.777142 L 9.1428571,44.022857 8.2742857,43.885714 q -1.1428571,0 -1.92,0.822857 -0.8228571,0.777143 -0.8228571,1.92 l 0.1371428,0.868572 -2.8342857,2.788571 25.5085713,0 L 33.28,45.348571 q -0.32,0.594286 -0.32,1.28 0,1.142858 0.822857,1.965715 l 0.09143,0.09143 q 0.731428,0.685715 1.828571,0.685715 1.188572,0 1.965714,-0.777143 0.777143,-0.822857 0.777143,-1.965715 0,-1.097142 -0.685714,-1.828571 l -0.09143,-0.09143 q -0.777142,-0.822857 -1.965714,-0.822857 -0.685714,0 -1.28,0.32 l 6.308572,-6.308571 0,-22.582857 -2.925715,0 -1.234285,1.28 m -21.942858,37.302857 -10.0571424,0 Q 0.13714286,53.897143 0,49.554286 L 0,16.228571 q 0.13714286,-4.342857 4.5714286,-4.342857 l 34.6971424,0 q 4.434286,0 4.571429,4.342857 l 0,2.971429 0,1.828571 0,23.725715 0,4.8 q -0.137143,4.342857 -4.571429,4.342857 l -24.64,0 M 2.7885714,43.611429 31.085714,15.314286 l -9.92,0 -18.3771426,18.377143 0,9.92 M 57.6,19.2 l 6.4,0 0,27.382857 -6.4,0 0,-1.828571 0,-23.725715 0,-1.828571 m -2.697143,42.742857 0,2.057143 -45.7142856,0 0,-2.057143 Q 9.3257143,57.6 13.76,57.6 l 36.571429,0 q 4.434285,0 4.571428,4.342857 M 11.017143,19.2 q 0,-1.097143 -0.685714,-1.828571 L 10.24,17.28 q -0.7771429,-0.822857 -1.9657143,-0.822857 -1.1428571,0 -1.92,0.822857 -0.8228571,0.777143 -0.8228571,1.92 0,1.142857 0.8228571,1.965714 l 0.091429,0.09143 q 0.7314286,0.685714 1.8285714,0.685714 1.1885714,0 1.9657143,-0.777143 Q 11.017143,20.342857 11.017143,19.2"
       id="path602" />
    <path
       style="fill:#bccccd;stroke:none"
       inkscape:connector-curvature="0"
       d="m 43.84,16.228571 q -0.137143,-4.342857 -4.571429,-4.342857 l -34.6971424,0 Q 0.13714286,11.885714 0,16.228571 l 0,-1.6 q 0,-4.571428 4.5714286,-4.571428 l 34.6971424,0 q 4.571429,0 4.571429,4.571428 l 0,1.6 M 57.6,19.2 l 0,-1.828571 6.4,0 0,1.828571 -6.4,0 m -9.142857,36.571429 1.874286,0 q 4.571428,0 4.571428,4.571428 l 0,1.6 Q 54.765714,57.6 50.331429,57.6 L 13.76,57.6 q -4.4342857,0 -4.5714286,4.342857 l 0,-1.6 q 0,-4.571428 4.5714286,-4.571428 l 0.868571,0 33.828572,0"
       id="path604" />
    <path
       style="fill:#9dafaf;stroke:none"
       inkscape:connector-curvature="0"
       d="m 43.84,21.028571 0,-1.828571 13.76,0 0,1.828571 -13.76,0"
       id="path606" />
    <path
       style="fill:#91a1a1;stroke:none"
       inkscape:connector-curvature="0"
       d="m 43.84,21.028571 13.76,0 0,23.725715 -9.142857,0 -4.617143,0 0,-23.725715"
       id="path608" />
    <path
       style="fill:#a1b1b1;stroke:none"
       inkscape:connector-curvature="0"
       d="m 14.628571,53.897143 24.64,0 q 4.434286,0 4.571429,-4.342857 l 0,-4.8 4.617143,0 0,11.017143 -33.828572,0 0,-1.874286 M 36.571429,16.594286 q 0.594285,0.182857 1.097142,0.685714 l 0.09143,0.09143 q 0.685714,0.731428 0.685714,1.828571 0,1.142857 -0.777143,1.965714 -0.777142,0.777143 -1.965714,0.777143 -1.097143,0 -1.828571,-0.685714 l -0.09143,-0.09143 Q 33.28,20.662857 33.097143,20.068571 L 32.96,19.291429 32.96,19.2 q 0,-1.142857 0.822857,-1.92 0.777143,-0.822857 1.92,-0.822857 l 0.868572,0.137143 M 9.1428571,44.022857 Q 9.7371429,44.205714 10.24,44.708571 L 10.331429,44.8 q 0.685714,0.731429 0.685714,1.828571 0,1.142858 -0.777143,1.965715 -0.7771429,0.777143 -1.9657143,0.777143 -1.0971428,0 -1.8285714,-0.685715 l -0.091429,-0.09143 Q 5.8514286,48.091429 5.6685714,47.497143 L 5.5314286,46.628571 q 0,-1.142857 0.8228571,-1.92 0.7771429,-0.822857 1.92,-0.822857 l 0.8685714,0.137143 M 33.28,45.348571 q 0.182857,-0.365714 0.502857,-0.64 0.274286,-0.32 0.64,-0.502857 0.594286,-0.32 1.28,-0.32 1.188572,0 1.965714,0.822857 L 37.76,44.8 q 0.685714,0.731429 0.685714,1.828571 0,1.142858 -0.777143,1.965715 -0.777142,0.777143 -1.965714,0.777143 -1.097143,0 -1.828571,-0.685715 l -0.09143,-0.09143 Q 32.96,47.771429 32.96,46.628571 q 0,-0.685714 0.32,-1.28 M 11.017143,19.2 q 0,1.142857 -0.777143,1.965714 -0.7771429,0.777143 -1.9657143,0.777143 -1.0971428,0 -1.8285714,-0.685714 l -0.091429,-0.09143 Q 5.5314286,20.342857 5.5314286,19.2 q 0,-1.142857 0.8228571,-1.92 0.7771429,-0.822857 1.92,-0.822857 1.1885714,0 1.9657143,0.822857 l 0.09143,0.09143 Q 11.017143,18.102857 11.017143,19.2"
       id="path610" />
  </g>
</svg>
