<?xml version="1.0" encoding="UTF-8" standalone="no"?>
<!-- Created with Inkscape (http://www.inkscape.org/) -->

<svg
   xmlns:dc="http://purl.org/dc/elements/1.1/"
   xmlns:cc="http://creativecommons.org/ns#"
   xmlns:rdf="http://www.w3.org/1999/02/22-rdf-syntax-ns#"
   xmlns:svg="http://www.w3.org/2000/svg"
   xmlns="http://www.w3.org/2000/svg"
   xmlns:sodipodi="http://sodipodi.sourceforge.net/DTD/sodipodi-0.dtd"
   xmlns:inkscape="http://www.inkscape.org/namespaces/inkscape"
   width="64px"
   height="64px"
   id="svg4014"
   version="1.1"
   inkscape:version="0.48.4 r9939"
   sodipodi:docname="New document 11">
  <defs
     id="defs4016" />
  <sodipodi:namedview
     id="base"
     pagecolor="#ffffff"
     bordercolor="#666666"
     borderopacity="1.0"
     inkscape:pageopacity="0.0"
     inkscape:pageshadow="2"
     inkscape:zoom="7.7781746"
     inkscape:cx="42.18159"
     inkscape:cy="35.877906"
     inkscape:current-layer="layer1"
     showgrid="true"
     inkscape:document-units="px"
     inkscape:grid-bbox="true"
     inkscape:window-width="1920"
     inkscape:window-height="1017"
     inkscape:window-x="-4"
     inkscape:window-y="-4"
     inkscape:window-maximized="1" />
  <metadata
     id="metadata4019">
    <rdf:RDF>
      <cc:Work
         rdf:about="">
        <dc:format>image/svg+xml</dc:format>
        <dc:type
           rdf:resource="http://purl.org/dc/dcmitype/StillImage" />
        <dc:title></dc:title>
      </cc:Work>
    </rdf:RDF>
  </metadata>
  <g
     id="layer1"
     inkscape:label="Layer 1"
     inkscape:groupmode="layer">
    <path
       style="fill:#acc0c1;stroke:none"
       inkscape:connector-curvature="0"
       d="m 54.681656,1.8272687 0,2.0556738 q -0.137044,4.3397571 -4.568165,4.3397571 l -0.867952,0 -33.804426,0 -1.872948,0 q -2.466809,0 -3.6088507,-1.3704487 Q 9.0456817,5.8015718 9,3.8829425 l 0,-2.0556738 45.681656,0 m -0.867951,14.3897213 0,27.820128 q -0.137044,4.339757 -4.568166,4.339757 l -34.672377,0 q -4.431121,0 -4.568166,-4.339757 l 0,-27.820128 q 0.137045,-4.339757 4.568166,-4.339757 l 34.672377,0 q 4.431122,0 4.568166,4.339757 m -7.583155,22.246967 4.659528,-4.659529 0,-19.551749 -5.938614,0 -24.896503,24.942184 q -0.776588,-0.82227 -1.91863,-0.82227 -1.187723,0 -1.964311,0.82227 l -0.04568,0.04568 -0.04568,0.04568 q -0.502498,0.548178 -0.639543,1.279084 l -0.04568,0.54818 0.04568,0.54818 q 0.137045,0.776588 0.730906,1.416131 l -3.152034,3.106352 25.490365,0 4.385439,-4.339758 q 0.137044,0.685226 0.685224,1.233406 0.776588,0.776588 1.964311,0.776588 1.09636,0 1.827267,-0.685226 l 0.09136,-0.09136 q 0.822269,-0.822271 0.822269,-1.964311 0,-1.142042 -0.822269,-1.91863 -0.548179,-0.54818 -1.233405,-0.730906 M 28.323341,14.252679 12.974304,29.601714 l 0,9.912921 25.261956,-25.261956 -9.912919,0 m -12.151321,3.014989 -0.09136,0.09137 q -0.685225,0.730904 -0.685225,1.827264 0,1.142042 0.776588,1.964313 0.776588,0.776588 1.964312,0.776588 1.09636,0 1.827266,-0.685226 l 0.09137,-0.09137 q 0.82227,-0.82227 0.82227,-1.964312 0,-1.142041 -0.82227,-1.918629 -0.776588,-0.822271 -1.91863,-0.822271 -1.187723,0 -1.964311,0.822271 m 30.286938,42.164169 0,4.568165 -29.190579,0 0,-4.568165 29.190579,0"
       id="path580" />
    <path
       style="fill:#bccccd;stroke:none"
       inkscape:connector-curvature="0"
       d="m 46.458958,59.431837 -29.190579,0 0,-1.827267 1.827267,0 25.536046,0 1.827266,0 0,1.827267 M 9,1.8272687 9,2e-6 l 45.681656,0 0,1.8272667 -45.681656,0 m 40.245539,8.2226973 0.228409,0 q 4.339757,0.09137 4.339757,4.568167 l 0,1.598857 q -0.137044,-4.339757 -4.568166,-4.339757 l -34.672377,0 q -4.431121,0 -4.568166,4.339757 l 0,-1.598857 q 0,-4.431122 4.339758,-4.568167 l 1.096359,0 33.804426,0"
       id="path582" />
    <path
       style="fill:#a1b1b1;stroke:none"
       inkscape:connector-curvature="0"
       d="m 49.245539,10.049966 -33.804426,0 0,-1.8272664 33.804426,0 0,1.8272664 m -5.755889,7.309064 0.09137,-0.09137 q 0.776587,-0.82227 1.96431,-0.82227 1.142043,0 1.91863,0.82227 0.822269,0.776588 0.822269,1.91863 0,1.142041 -0.822269,1.964312 l -0.09136,0.09137 q -0.730907,0.685225 -1.827267,0.685225 -1.187723,0 -1.964311,-0.776588 -0.776588,-0.82227 -0.776588,-1.964312 0,-1.09636 0.685224,-1.827267 M 20.054961,39.194863 q 0.82227,0.776588 0.82227,1.918629 0,1.142041 -0.82227,1.964311 l -0.09137,0.09137 q -0.730906,0.685225 -1.827266,0.685225 -1.187724,0 -1.964312,-0.776588 -0.593861,-0.639542 -0.730906,-1.416131 l -0.04568,-0.548179 0.04568,-0.548181 q 0.137046,-0.730907 0.639545,-1.279087 l 0.04568,-0.04568 0.04568,-0.04568 q 0.776588,-0.822269 1.964311,-0.822269 1.142042,0 1.91863,0.822269 m 22.840828,2.649535 -0.09137,-0.730905 q 0,-1.096359 0.685225,-1.827266 l 0.09136,-0.09137 q 0.776588,-0.822269 1.964312,-0.822269 l 0.685225,0.09137 q 0.685225,0.182725 1.233404,0.730905 0.82227,0.776589 0.82227,1.91863 0,1.14204 -0.82227,1.964311 l -0.09137,0.09137 q -0.730907,0.685225 -1.827266,0.685225 -1.187724,0 -1.964312,-0.776588 -0.54818,-0.54818 -0.685224,-1.233405 M 16.17202,17.267668 q 0.776588,-0.822271 1.964311,-0.822271 1.142042,0 1.91863,0.822271 0.82227,0.776588 0.82227,1.918629 0,1.142042 -0.82227,1.964312 l -0.09137,0.09137 q -0.730906,0.685224 -1.827266,0.685224 -1.187724,0 -1.964312,-0.776586 -0.776588,-0.822271 -0.776588,-1.964313 0,-1.09636 0.685225,-1.827266 l 0.09136,-0.09137"
       id="path584" />
    <path
       style="fill:#b4c6c7;stroke:none"
       inkscape:connector-curvature="0"
       d="m 43.48965,17.35903 q -0.685225,0.730907 -0.685225,1.827267 0,1.142042 0.776589,1.964312 0.776587,0.776587 1.96431,0.776587 1.09636,0 1.827267,-0.685224 l 0.09136,-0.09137 q 0.82227,-0.822271 0.82227,-1.964312 0,-1.142042 -0.82227,-1.91863 -0.776587,-0.82227 -1.918629,-0.82227 -1.187723,0 -1.964311,0.82227 l -0.09136,0.09137 m -23.43469,21.835833 24.896503,-24.942184 5.938614,0 0,19.551747 -4.659528,4.659531 -0.685226,-0.09137 q -1.187723,0 -1.96431,0.82227 l -0.09136,0.09137 q -0.685225,0.730906 -0.685225,1.827265 l 0.09136,0.730906 -4.385439,4.339757 -25.490365,0 3.152035,-3.106352 q 0.776588,0.776588 1.964311,0.776588 1.096361,0 1.827267,-0.685225 l 0.09137,-0.09137 q 0.82227,-0.822271 0.82227,-1.964311 0,-1.142041 -0.82227,-1.91863 m 8.26838,-24.942183 9.912918,0 -25.261956,25.261955 0,-9.91292 15.349038,-15.349035"
       id="path586" />
    <path
       style="fill:#91a1a1;stroke:none"
       inkscape:connector-curvature="0"
       d="m 19.095646,57.60457 0,-9.182013 25.536046,0 0,9.182013 -25.536046,0"
       id="path588" />
  </g>
</svg>
