<?xml version="1.0" encoding="UTF-8" standalone="no"?>
<!-- Created with Inkscape (http://www.inkscape.org/) -->

<svg
   xmlns:dc="http://purl.org/dc/elements/1.1/"
   xmlns:cc="http://creativecommons.org/ns#"
   xmlns:rdf="http://www.w3.org/1999/02/22-rdf-syntax-ns#"
   xmlns:svg="http://www.w3.org/2000/svg"
   xmlns="http://www.w3.org/2000/svg"
   xmlns:sodipodi="http://sodipodi.sourceforge.net/DTD/sodipodi-0.dtd"
   xmlns:inkscape="http://www.inkscape.org/namespaces/inkscape"
   width="64px"
   height="64px"
   id="svg3942"
   version="1.1"
   inkscape:version="0.48.4 r9939"
   sodipodi:docname="SourceLeft.svg">
  <defs
     id="defs3944" />
  <sodipodi:namedview
     id="base"
     pagecolor="#ffffff"
     bordercolor="#666666"
     borderopacity="1.0"
     inkscape:pageopacity="0.0"
     inkscape:pageshadow="2"
     inkscape:zoom="4"
     inkscape:cx="46.827877"
     inkscape:cy="32.442814"
     inkscape:current-layer="layer1"
     showgrid="true"
     inkscape:document-units="px"
     inkscape:grid-bbox="true"
     inkscape:window-width="1920"
     inkscape:window-height="1017"
     inkscape:window-x="-4"
     inkscape:window-y="-4"
     inkscape:window-maximized="1" />
  <metadata
     id="metadata3947">
    <rdf:RDF>
      <cc:Work
         rdf:about="">
        <dc:format>image/svg+xml</dc:format>
        <dc:type
           rdf:resource="http://purl.org/dc/dcmitype/StillImage" />
        <dc:title />
      </cc:Work>
    </rdf:RDF>
  </metadata>
  <g
     id="layer1"
     inkscape:label="Layer 1"
     inkscape:groupmode="layer">
    <path
       style="fill:#bccccd;stroke:none"
       inkscape:connector-curvature="0"
       d="m 0,19.2 0,-1.828572 6.4,0 0,1.828572 -6.4,0 m 20.160001,-2.97143 0,-1.6 q 0,-4.571428 4.571427,-4.571428 l 34.697144,0 Q 64,10.057142 64,14.62857 l 0,1.6 q -0.137143,-4.342857 -4.571428,-4.342857 l -34.697144,0 q -4.434284,0 -4.571427,4.342857 m 29.211429,39.542859 0.86857,0 q 4.571429,0 4.571429,4.571428 l 0,1.600001 Q 54.674286,57.6 50.24,57.6 l -36.571428,0 q -4.4342867,0 -4.5714289,4.342858 l 0,-1.600001 q 0,-4.571428 4.5714289,-4.571428 l 1.874285,0 33.828573,0"
       id="path568" />
    <path
       style="fill:#acc0c1;stroke:none"
       inkscape:connector-curvature="0"
       d="m 20.160001,19.2 0,-2.97143 q 0.137143,-4.342857 4.571427,-4.342857 l 34.697144,0 q 4.434285,0 4.571428,4.342857 l 0,33.325716 q -0.137143,4.342856 -4.571428,4.342856 l -10.057142,0 -24.640002,0 q -4.434284,0 -4.571427,-4.342856 l 0,-4.8 0,-23.725716 0,-1.82857 m 34.651428,42.742858 0,2.057142 -45.7142859,0 0,-2.057142 Q 9.2342853,57.6 13.668572,57.6 L 50.24,57.6 q 4.434286,0 4.571429,4.342858 M 6.4,44.754286 l 0,1.828571 -6.4,0 L 0,19.2 l 6.4,0 0,1.82857 0,23.725716 m 48.914287,-0.822857 5.98857,-6.034287 0,-22.582857 -2.925714,0 L 56.96,16.777142 q -0.548571,-0.32 -1.234285,-0.32 -1.188572,0 -1.965714,0.822857 l -0.09143,0.09143 q -0.685714,0.731428 -0.685714,1.828572 0,0.685714 0.274286,1.234286 L 29.531429,44.205715 29.028572,43.977143 28.48,43.885713 l -0.04572,0 -0.137142,0 q -1.188571,0 -1.965714,0.822857 L 26.239994,44.8 q -0.685715,0.731428 -0.685715,1.828571 0,0.685715 0.274286,1.234286 l -2.422857,2.422857 25.508571,0 4.114286,-4.06857 -0.04572,0.411427 q 0,1.142858 0.777143,1.965715 0.777143,0.777143 1.965715,0.777143 1.097142,0 1.828571,-0.685715 l 0.09143,-0.09143 q 0.822858,-0.822857 0.822858,-1.965715 0,-1.142856 -0.822858,-1.92 -0.777142,-0.822857 -1.919999,-0.822857 l -0.411428,0.04572 M 41.737143,15.314285 23.36,33.691428 l 0,9.92 28.297143,-28.297143 -9.92,0 M 26.240001,17.371428 Q 25.554286,18.102856 25.554286,19.2 q 0,1.142857 0.777143,1.965713 0.777143,0.777144 1.965714,0.777144 1.097144,0 1.828571,-0.685714 l 0.09143,-0.09143 Q 31.04,20.342857 31.04,19.2 q 0,-1.142859 -0.822856,-1.920001 -0.777144,-0.822857 -1.920001,-0.822857 -1.188571,0 -1.965714,0.822857 l -0.09143,0.09143"
       id="path570" />
    <path
       style="fill:#b4c6c7;stroke:none"
       inkscape:connector-curvature="0"
       d="m 56.96,16.777142 1.417143,-1.462857 2.925714,0 0,22.582857 -5.98857,6.034287 Q 54.4,44.022859 53.760001,44.708571 l -0.09143,0.09143 Q 53.12,45.394286 53.028572,46.217145 l -4.114286,4.06857 -25.508571,0 2.422857,-2.422857 0.502857,0.731429 q 0.777143,0.777143 1.965714,0.777143 1.097144,0 1.828571,-0.685715 l 0.09143,-0.09143 Q 31.04,47.771428 31.04,46.62857 q 0,-1.142856 -0.822856,-1.92 l -0.685715,-0.502857 23.725714,-23.771428 0.502858,0.731427 q 0.777142,0.777144 1.965714,0.777144 1.097142,0 1.828571,-0.685714 l 0.09143,-0.09143 q 0.822858,-0.822856 0.822858,-1.965713 0,-1.142859 -0.822858,-1.920001 L 56.960003,16.77714 m -15.222857,-1.462857 9.92,0 -28.297143,28.297143 0,-9.92 18.377143,-18.377143"
       id="path572" />
    <path
       style="fill:#a1b1b1;stroke:none"
       inkscape:connector-curvature="0"
       d="m 49.37143,53.897142 0,1.874287 -33.828573,0 0,-11.017143 4.617144,0 0,4.8 q 0.137143,4.342856 4.571427,4.342856 l 24.640002,0 m 7.58857,-37.12 0.685714,0.502857 q 0.822858,0.777142 0.822858,1.920001 0,1.142857 -0.822858,1.965713 l -0.09143,0.09143 q -0.731429,0.685714 -1.828571,0.685714 -1.188572,0 -1.965714,-0.777144 l -0.502855,-0.731429 q -0.274286,-0.548572 -0.274286,-1.234286 0,-1.097144 0.685714,-1.828572 l 0.09143,-0.09143 q 0.777142,-0.822857 1.965714,-0.822857 0.685714,0 1.234285,0.32 m -27.428571,27.428572 0.685715,0.502857 q 0.822856,0.777144 0.822856,1.92 0,1.142858 -0.822856,1.965715 l -0.09143,0.09143 q -0.731427,0.685715 -1.828571,0.685715 -1.188571,0 -1.965714,-0.777143 l -0.502857,-0.73143 q -0.274286,-0.548571 -0.274286,-1.234286 0,-1.097143 0.685715,-1.828571 l 0.09143,-0.09143 q 0.777143,-0.822857 1.965714,-0.822857 l 0.137142,0 0.04572,0 0.548572,0.09143 0.502857,0.228572 m 23.497143,2.01143 q 0.09143,-0.822859 0.639999,-1.417144 l 0.09143,-0.09143 q 0.639999,-0.685714 1.554286,-0.777142 l 0.411428,-0.04572 q 1.142857,0 1.919999,0.822857 0.822858,0.777144 0.822858,1.92 0,1.142858 -0.822858,1.965715 l -0.09143,0.09143 q -0.731429,0.685715 -1.828571,0.685715 -1.188572,0 -1.965714,-0.777143 -0.777144,-0.822857 -0.777144,-1.965715 l 0.04572,-0.411427 m -26.788571,-28.845716 0.09143,-0.09143 q 0.777143,-0.822857 1.965714,-0.822857 1.142857,0 1.920001,0.822857 0.822856,0.777142 0.822856,1.920001 0,1.142857 -0.822856,1.965713 l -0.09143,0.09143 q -0.731428,0.685714 -1.828572,0.685714 -1.188571,0 -1.965714,-0.777144 -0.777143,-0.822856 -0.777143,-1.965713 0,-1.097144 0.685715,-1.828572"
       id="path574" />
    <path
       style="fill:#9dafaf;stroke:none"
       inkscape:connector-curvature="0"
       d="m 6.4,19.2 13.760001,0 0,1.82857 -13.760001,0 0,-1.82857"
       id="path576" />
    <path
       style="fill:#91a1a1;stroke:none"
       inkscape:connector-curvature="0"
       d="m 15.542857,44.754286 -9.142857,0 0,-23.725716 13.760001,0 0,23.725716 -4.617144,0"
       id="path578" />
  </g>
</svg>
